<svg width="211" height="114" viewBox="0 0 211 114" fill="none" xmlns="http://www.w3.org/2000/svg">
  <path
    d="M3.57628e-07 -7.15256e-06H32.04V3.48H3.96V90H3.57628e-07V-7.15256e-06ZM54.1369 88.08C58.2969 88.08 62.2569 87 66.0169 84.84C69.7769 82.68 72.8969 79.72 75.3769 75.96V82.08C72.4169 85.36 69.1769 87.76 65.6569 89.28C62.1369 90.72 58.1369 91.44 53.6569 91.44C48.6969 91.44 44.0169 90.12 39.6169 87.48C35.2969 84.84 31.8169 81.32 29.1769 76.92C26.6169 72.52 25.3369 67.84 25.3369 62.88C25.3369 57.52 26.6169 52.72 29.1769 48.48C31.7369 44.16 35.2169 40.8 39.6169 38.4C44.0969 36 49.0569 34.8 54.4969 34.8C62.8169 34.8 69.8969 38.08 75.7369 44.64L38.0569 81.84C40.6969 84 43.2569 85.6 45.7369 86.64C48.2169 87.6 51.0169 88.08 54.1369 88.08ZM29.1769 62.52C29.1769 69.16 31.3769 74.84 35.7769 79.56L70.9369 44.64C68.2969 42.32 65.7369 40.68 63.2569 39.72C60.7769 38.68 57.8169 38.16 54.3769 38.16C49.4969 38.16 45.1369 39.24 41.2969 41.4C37.5369 43.48 34.5769 46.36 32.4169 50.04C30.2569 53.72 29.1769 57.88 29.1769 62.52ZM87.7397 36H91.5797V49.2C93.7397 44.88 97.0997 41.4 101.66 38.76C106.22 36.04 111.02 34.68 116.06 34.68C121.26 34.68 126.02 35.96 130.34 38.52C134.74 41.08 138.22 44.52 140.78 48.84C143.34 53.16 144.62 57.88 144.62 63C144.62 68.12 143.34 72.84 140.78 77.16C138.22 81.48 134.74 84.92 130.34 87.48C126.02 90.04 121.26 91.32 116.06 91.32C111.18 91.32 106.46 90 101.9 87.36C97.4197 84.72 93.9797 81.24 91.5797 76.92V114H87.7397V36ZM116.3 87.96C120.7 87.96 124.78 86.84 128.54 84.6C132.3 82.28 135.26 79.24 137.42 75.48C139.66 71.64 140.78 67.48 140.78 63C140.78 58.6 139.66 54.48 137.42 50.64C135.18 46.8 132.18 43.76 128.42 41.52C124.66 39.2 120.58 38.04 116.18 38.04C111.78 38.04 107.66 39.2 103.82 41.52C100.06 43.84 97.0197 46.92 94.6997 50.76C92.4597 54.6 91.3397 58.72 91.3397 63.12C91.3397 67.52 92.4597 71.64 94.6997 75.48C97.0197 79.24 100.1 82.28 103.94 84.6C107.78 86.84 111.9 87.96 116.3 87.96ZM182.086 91.32C176.966 91.32 172.206 90.04 167.806 87.48C163.406 84.92 159.926 81.48 157.366 77.16C154.806 72.76 153.526 68.04 153.526 63C153.526 57.96 154.806 53.28 157.366 48.96C159.926 44.56 163.406 41.08 167.806 38.52C172.206 35.96 176.966 34.68 182.086 34.68C187.286 34.68 192.206 36.08 196.846 38.88C201.486 41.6 204.726 45.16 206.566 49.56V36H210.406V90H206.566V76.56C204.406 81.04 201.046 84.64 196.486 87.36C192.006 90 187.206 91.32 182.086 91.32ZM182.326 87.96C186.726 87.96 190.806 86.84 194.566 84.6C198.326 82.28 201.286 79.24 203.446 75.48C205.686 71.64 206.806 67.48 206.806 63C206.806 58.6 205.686 54.48 203.446 50.64C201.206 46.8 198.206 43.76 194.446 41.52C190.686 39.2 186.606 38.04 182.206 38.04C177.806 38.04 173.686 39.2 169.846 41.52C166.086 43.84 163.046 46.92 160.726 50.76C158.486 54.6 157.366 58.72 157.366 63.12C157.366 67.52 158.486 71.64 160.726 75.48C163.046 79.24 166.126 82.28 169.966 84.6C173.806 86.84 177.926 87.96 182.326 87.96Z"
    fill="black" />
</svg>